<svg xmlns="http://www.w3.org/2000/svg" viewBox="0 0 512 512" width="100%" height="100%" role="img" aria-label="RadPlan Arbeitsplatzkalender"><defs><style>:root {--canvas-top:#18283F;--canvas-mid:#111C2E;--canvas-bot:#0B131F;--canvas-border:rgba(255,255,255,.10);--canvas-inner:rgba(255,255,255,.045);--panel:#111C2E;--panel-border:rgba(255,255,255,.14);--row:rgba(255,255,255,.055);--row-border:rgba(255,255,255,.075);--grid:rgba(255,255,255,.10);--binder-top:#E2E8F0;--binder-bot:#64748B;--binder-stroke:#0F172A;--shine:rgba(255,255,255,.12);--shadow:rgba(0,0,0,.38);}@media (prefers-color-scheme: light) {:root {--canvas-top:#E2DCCC;--canvas-mid:#ECE7DC;--canvas-bot:#F4F1EA;--canvas-border:rgba(15,23,42,.14);--canvas-inner:rgba(15,23,42,.055);--panel:#FFFFFF;--panel-border:rgba(15,23,42,.15);--row:rgba(15,23,42,.045);--row-border:rgba(15,23,42,.065);--grid:rgba(15,23,42,.11);--binder-top:#F8FAFC;--binder-bot:#94A3B8;--binder-stroke:#475569;--shine:rgba(255,255,255,.72);--shadow:rgba(15,23,42,.16);}}.canvas{fill:url(#canvasGrad);stroke:var(--canvas-border);stroke-width:3}.canvas-inner{fill:none;stroke:var(--canvas-inner);stroke-width:2}.panel{fill:var(--panel);stroke:var(--panel-border);stroke-width:3;filter:url(#panelShadow)}.row{fill:var(--row);stroke:var(--row-border);stroke-width:1.5}.gridline{stroke:var(--grid);stroke-width:3;stroke-linecap:round}.binder{fill:url(#binderGrad);stroke:var(--binder-stroke);stroke-width:2}</style><linearGradient id="canvasGrad" x1="72" y1="36" x2="446" y2="472" gradientUnits="userSpaceOnUse"><stop offset="0" stop-color="var(--canvas-top)"/><stop offset=".46" stop-color="var(--canvas-mid)"/><stop offset="1" stop-color="var(--canvas-bot)"/></linearGradient><linearGradient id="accentGrad" x1="104" y1="96" x2="408" y2="166" gradientUnits="userSpaceOnUse"><stop offset="0" stop-color="#0EA5E9"/><stop offset="1" stop-color="#6366F1"/></linearGradient><linearGradient id="binderGrad" x1="0" y1="64" x2="0" y2="124" gradientUnits="userSpaceOnUse"><stop offset="0" stop-color="var(--binder-top)"/><stop offset="1" stop-color="var(--binder-bot)"/></linearGradient><radialGradient id="aura" cx="0" cy="0" r="1" gradientTransform="translate(256 230) rotate(90) scale(232)" gradientUnits="userSpaceOnUse"><stop offset="0" stop-color="#0EA5E9" stop-opacity=".16"/><stop offset=".58" stop-color="#6366F1" stop-opacity=".045"/><stop offset="1" stop-color="#6366F1" stop-opacity="0"/></radialGradient><filter id="panelShadow" x="62" y="64" width="388" height="398" filterUnits="userSpaceOnUse" color-interpolation-filters="sRGB"><feDropShadow dx="0" dy="13" stdDeviation="13" flood-color="var(--shadow)"/></filter><clipPath id="panelClip"><rect x="100" y="92" width="312" height="330" rx="38"/></clipPath></defs><rect class="canvas" x="1.5" y="1.5" width="509" height="509" rx="110.5"/><rect class="canvas-inner" x="7" y="7" width="498" height="498" rx="105"/><circle cx="256" cy="232" r="232" fill="url(#aura)"/><rect class="panel" x="100" y="92" width="312" height="330" rx="38"/><g clip-path="url(#panelClip)"><rect x="100" y="92" width="312" height="76" fill="url(#accentGrad)"/><path d="M112 104h288" stroke="var(--shine)" stroke-width="2" stroke-linecap="round" opacity=".8"/></g><rect class="binder" x="164" y="70" width="26" height="56" rx="13"/><rect class="binder" x="322" y="70" width="26" height="56" rx="13"/><g opacity=".78"><circle cx="144" cy="135" r="6" fill="#E0F2FE"/><circle cx="178" cy="135" r="6" fill="#E0F2FE" opacity=".72"/><circle cx="212" cy="135" r="6" fill="#E0F2FE" opacity=".50"/></g><rect class="row" x="126" y="190" width="260" height="52" rx="14"/><rect class="row" x="126" y="254" width="260" height="52" rx="14"/><rect class="row" x="126" y="318" width="260" height="52" rx="14"/><g opacity=".72"><path class="gridline" d="M192 184v192"/><path class="gridline" d="M256 184v192"/><path class="gridline" d="M320 184v192"/></g><rect x="151" y="201" width="98" height="30" rx="9" fill="#0EA5E9"/><rect x="272" y="201" width="88" height="30" rx="9" fill="#6366F1"/><rect x="207" y="265" width="132" height="30" rx="9" fill="#F97316"/><rect x="143" y="329" width="105" height="30" rx="9" fill="#22C55E"/><rect x="278" y="329" width="82" height="30" rx="9" fill="#38BDF8"/><rect x="253" y="180" width="6" height="200" rx="3" fill="#67D4FF" opacity=".56"/><circle cx="256" cy="388" r="7" fill="#67D4FF"/></svg>