<svg xmlns="http://www.w3.org/2000/svg" class="radplan-brand-icon" viewBox="0 0 512 512" width="100%" height="100%" role="img" aria-label="RadPlan Farbraster animiert">
  <defs>
    <style>
      .tile{transform-box:fill-box;transform-origin:center;animation:tile 5.4s cubic-bezier(.34,1.18,.64,1) infinite}
      .t1{animation-delay:0s}.t2{animation-delay:.12s}.t3{animation-delay:.24s}.t4{animation-delay:.36s}.t5{animation-delay:.48s}.t6{animation-delay:.60s}.t7{animation-delay:.72s}.t8{animation-delay:.84s}.t9{animation-delay:.96s}
      .grid-shell{animation:shell 5.4s ease-in-out infinite}
      @keyframes tile{0%,8%{transform:scale(.78);opacity:.52}16%,76%{transform:scale(1);opacity:1}88%,100%{transform:scale(.92);opacity:.82}}
      @keyframes shell{0%,100%{transform:scale(1)}48%{transform:scale(1.018)}72%{transform:scale(1)}}
      @media (prefers-reduced-motion:reduce){.tile,.grid-shell{animation:none!important;transform:none!important;opacity:1!important}}
    </style>
    <linearGradient id="bg" x1="52" y1="28" x2="460" y2="486" gradientUnits="userSpaceOnUse">
      <stop offset="0" stop-color="#FFFFFF"/>
      <stop offset="0.55" stop-color="#F8FAFC"/>
      <stop offset="1" stop-color="#EDE7DC"/>
    </linearGradient>
    <filter id="shadow" x="46" y="48" width="420" height="420" filterUnits="userSpaceOnUse" color-interpolation-filters="sRGB">
      <feDropShadow dx="0" dy="12" stdDeviation="14" flood-color="#334155" flood-opacity=".15"/>
    </filter>
  </defs>
  <rect x="12" y="12" width="488" height="488" rx="110" fill="url(#bg)" stroke="#CBD5E1" stroke-width="8"/>
  <rect x="26" y="26" width="460" height="460" rx="96" fill="none" stroke="#FFFFFF" stroke-opacity=".95" stroke-width="4"/>
  <g class="grid-shell">
    <rect x="72" y="72" width="368" height="368" rx="64" fill="#FFFFFF" stroke="#D8DEE8" stroke-width="5" filter="url(#shadow)"/>
    <g stroke="#FFFFFF" stroke-width="8">
      <rect class="tile t1" x="96" y="96" width="96" height="96" rx="22" fill="#0EA5E9"/>
      <rect class="tile t2" x="208" y="96" width="96" height="96" rx="22" fill="#6366F1"/>
      <rect class="tile t3" x="320" y="96" width="96" height="96" rx="22" fill="#F97316"/>
      <rect class="tile t4" x="96" y="208" width="96" height="96" rx="22" fill="#14B8A6"/>
      <rect class="tile t5" x="208" y="208" width="96" height="96" rx="22" fill="#EC4899"/>
      <rect class="tile t6" x="320" y="208" width="96" height="96" rx="22" fill="#EAB308"/>
      <rect class="tile t7" x="96" y="320" width="96" height="96" rx="22" fill="#22C55E"/>
      <rect class="tile t8" x="208" y="320" width="96" height="96" rx="22" fill="#8B5CF6"/>
      <rect class="tile t9" x="320" y="320" width="96" height="96" rx="22" fill="#38BDF8"/>
    </g>
  </g>
</svg>
