<svg xmlns="http://www.w3.org/2000/svg" viewBox="0 0 512 512" width="100%" height="100%" role="img" aria-label="RadPlan Farbraster">
  <defs>
    <linearGradient id="bg" x1="52" y1="28" x2="460" y2="486" gradientUnits="userSpaceOnUse">
      <stop offset="0" stop-color="#FFFFFF"/>
      <stop offset="0.55" stop-color="#F8FAFC"/>
      <stop offset="1" stop-color="#EDE7DC"/>
    </linearGradient>
    <filter id="shadow" x="46" y="48" width="420" height="420" filterUnits="userSpaceOnUse" color-interpolation-filters="sRGB">
      <feDropShadow dx="0" dy="12" stdDeviation="14" flood-color="#334155" flood-opacity=".15"/>
    </filter>
  </defs>
  <rect x="12" y="12" width="488" height="488" rx="110" fill="url(#bg)" stroke="#CBD5E1" stroke-width="8"/>
  <rect x="26" y="26" width="460" height="460" rx="96" fill="none" stroke="#FFFFFF" stroke-opacity=".95" stroke-width="4"/>
  <rect x="72" y="72" width="368" height="368" rx="64" fill="#FFFFFF" stroke="#D8DEE8" stroke-width="5" filter="url(#shadow)"/>
  <g stroke="#FFFFFF" stroke-width="8">
    <rect x="96" y="96" width="96" height="96" rx="22" fill="#0EA5E9"/>
    <rect x="208" y="96" width="96" height="96" rx="22" fill="#6366F1"/>
    <rect x="320" y="96" width="96" height="96" rx="22" fill="#F97316"/>
    <rect x="96" y="208" width="96" height="96" rx="22" fill="#14B8A6"/>
    <rect x="208" y="208" width="96" height="96" rx="22" fill="#EC4899"/>
    <rect x="320" y="208" width="96" height="96" rx="22" fill="#EAB308"/>
    <rect x="96" y="320" width="96" height="96" rx="22" fill="#22C55E"/>
    <rect x="208" y="320" width="96" height="96" rx="22" fill="#8B5CF6"/>
    <rect x="320" y="320" width="96" height="96" rx="22" fill="#38BDF8"/>
  </g>
  <g fill="#FFFFFF" fill-opacity=".22">
    <path d="M117 116h54a10 10 0 0 1 10 10v3h-74v-3a10 10 0 0 1 10-10z"/>
    <path d="M229 116h54a10 10 0 0 1 10 10v3h-74v-3a10 10 0 0 1 10-10z"/>
    <path d="M341 116h54a10 10 0 0 1 10 10v3h-74v-3a10 10 0 0 1 10-10z"/>
  </g>
</svg>
